<svg width="16" height="20" viewBox="0 0 16 20" fill="none" xmlns="http://www.w3.org/2000/svg">
<path d="M3.39082 11.3284C1.58281 11.5867 0.149927 13.0873 0.026933 14.9139C0.00233419 15.3014 0.00233419 15.695 0.026933 16.0824C0.149927 17.909 1.58281 19.4096 3.39082 19.6679C4.8975 19.8832 6.40417 19.9939 7.91085 20H8.08919C9.59586 19.9939 11.1087 19.8832 12.6092 19.6679C14.4172 19.4096 15.8501 17.909 15.9731 16.0824C15.9854 15.9164 15.9916 15.7503 15.9916 15.5781V15.4121C15.9916 15.246 15.9854 15.08 15.9731 14.9078C15.8501 13.0812 14.4172 11.5806 12.6092 11.3223C11.0718 11.1009 9.53437 10.9902 7.99694 10.9902C6.46567 10.9963 4.92209 11.107 3.39082 11.3284ZM8.00309 0C5.24188 0 3.00338 2.23863 3.00338 5C3.00338 7.76138 5.24188 10 8.00309 10C10.7643 10 13.0028 7.76138 13.0028 5C13.0028 2.23863 10.7643 0 8.00309 0Z" fill="#31B057"/>
</svg>
