<?xml version="1.0" encoding="utf-8"?>
<!-- Generator: Adobe Illustrator 24.1.1, SVG Export Plug-In . SVG Version: 6.00 Build 0)  -->
<svg version="1.1" id="Layer_1" xmlns="http://www.w3.org/2000/svg" xmlns:xlink="http://www.w3.org/1999/xlink" x="0px" y="0px"
	 viewBox="0 0 512 512" style="enable-background:new 0 0 512 512;" xml:space="preserve">
<g>
	<rect x="96" y="224" width="192" height="32"/>
	<rect x="96" y="128" width="320" height="32"/>
	<path d="M374.4,384L249.6,512l-22.4-22.4L358.4,352H448c19.2,0,32-12.8,32-32V64c0-19.2-12.8-32-32-32H64c-19.2,0-32,12.8-32,32
		v256c0,19.2,12.8,32,32,32h176v32H64c-35.2,0-64-28.8-64-64V64C0,28.8,28.8,0,64,0h384c35.2,0,64,28.8,64,64v256
		c0,35.2-28.8,64-64,64H374.4z"/>
</g>
</svg>
