<svg width="20" height="20" viewBox="0 0 20 20" fill="none" xmlns="http://www.w3.org/2000/svg">
<path d="M7.99527 10.7532C7.44639 10.7532 6.99509 11.1984 6.99509 11.7535C6.99509 12.3024 7.44029 12.7537 7.99527 12.7537H11.9959C12.5448 12.7537 12.9961 12.3085 12.9961 11.7535C12.9961 11.1984 12.5509 10.7532 11.9959 10.7532H7.99527ZM5.49484 7.25242C4.93987 7.25242 4.49467 7.69765 4.49467 8.25265C4.49467 8.80156 4.93987 9.25287 5.49484 9.25287H14.4903C15.0392 9.25287 15.4904 8.80766 15.4904 8.25265C15.4904 7.69765 15.0453 7.25242 14.4903 7.25242H5.49484ZM4.85449 14.6505C3.5006 14.5041 2.42115 13.4368 2.23209 12.0462C1.92716 9.83838 1.92716 7.59396 2.23209 5.38614C2.42725 4.00167 3.51279 2.92826 4.87888 2.78189C8.2758 2.41595 11.7276 2.41595 15.1245 2.78189C16.4906 2.92826 17.5762 4.00168 17.7652 5.39224C18.0945 7.75864 18.0702 10.1555 17.6981 12.5158C17.5274 13.5953 16.6187 14.4614 15.4843 14.6078C14.966 14.6809 14.5696 15.1079 14.5452 15.6263L14.4903 16.6448L12.429 15.0957C12.2399 14.9554 12.0081 14.8761 11.7764 14.8761C11.7642 14.8761 11.752 14.8761 11.7398 14.8761C11.1177 14.9005 10.5018 14.9127 9.88583 14.9127C8.15383 14.9127 6.47672 14.8273 4.85449 14.6505ZM4.65933 0.793619C2.38455 1.03758 0.567172 2.81237 0.250045 5.11167C0.0853826 6.28877 0.0060986 7.47197 0 8.65517V8.78326C0.0060986 9.96646 0.0853826 11.1497 0.250045 12.3268C0.567172 14.6261 2.37236 16.3948 4.64104 16.6387C6.84263 16.8766 9.14181 16.962 11.4776 16.8888L14.6671 19.2857C14.8562 19.4259 15.0818 19.4991 15.3136 19.4991C15.4661 19.4991 15.6246 19.4686 15.771 19.3954C16.1308 19.2308 16.3686 18.877 16.393 18.4745L16.5028 16.4192C18.1433 15.9129 19.4058 14.5163 19.6741 12.8208C20.0827 10.2592 20.1071 7.66715 19.7473 5.10559C19.4301 2.80628 17.6128 1.03147 15.338 0.787514C13.5694 0.598446 11.7825 0.500862 10.0017 0.500862C8.20872 0.506961 6.42792 0.604551 4.65933 0.793619Z" fill="#31B057"/>
</svg>
