<svg width="24" height="24" viewBox="0 0 24 24" fill="none" xmlns="http://www.w3.org/2000/svg">
<path d="M15.0204 22L15 18.668C15 17.8724 14.6839 17.1093 14.1213 16.5467C13.5587 15.9841 12.7956 15.668 12 15.668C11.2044 15.668 10.4413 15.9841 9.87868 16.5467C9.31607 17.1093 9 17.8724 9 18.668V22H8.73878C5.5 22 2.44741 19.8148 2.27986 16.439L2 10.8C2 10.4546 2.08943 10.1152 2.25959 9.81461C2.42976 9.51407 2.67485 9.26271 2.971 9.08502L10.971 2.28502C11.2818 2.09852 11.6375 2 12 2C12.3625 2 12.7182 2.09852 13.029 2.28502L21.029 9.08502C21.3252 9.26271 21.5702 9.51407 21.7404 9.81461C21.9106 10.1152 22 10.4546 22 10.8L21.7201 16.439C21.5526 19.8148 18.5 22 15.2612 22H15.0204Z" fill="#08AB4B"/>
</svg>
