<svg width="20" height="20" viewBox="0 0 20 20" fill="none" xmlns="http://www.w3.org/2000/svg">
<path d="M13.845 14.8739V16.2427C13.845 16.6196 14.1498 16.9244 14.5266 16.9244C14.9034 16.9244 15.2082 16.6196 15.2082 16.2427V14.8739C15.2082 14.4971 14.9034 14.1923 14.5266 14.1923C14.1498 14.1923 13.845 14.4971 13.845 14.8739ZM13.845 12.8235C13.845 13.2003 14.1498 13.5051 14.5266 13.5051C14.9034 13.5051 15.2082 13.2003 15.2082 12.8235C15.2082 12.4467 14.9034 12.1419 14.5266 12.1419C14.1498 12.1419 13.845 12.4467 13.845 12.8235ZM5.93195 12.0864C5.42768 12.0864 5.02316 12.4965 5.02316 12.9953C5.02316 13.494 5.43322 13.9041 5.93195 13.9041H6.84073C7.345 13.9041 7.74952 13.494 7.74952 12.9953C7.74952 12.4965 7.33946 12.0864 6.84073 12.0864H5.93195ZM10.8859 14.5359C10.8859 12.5242 12.5206 10.895 14.5322 10.895C16.5437 10.895 18.1784 12.5298 18.1784 14.5359C18.1784 16.542 16.5437 18.1823 14.5322 18.1823C12.5206 18.1823 10.8859 16.542 10.8859 14.5359ZM9.06283 14.5359C9.06283 17.5561 11.5121 20 14.5266 20C17.5411 20 19.9904 17.5561 19.9904 14.5359C19.9904 11.5157 17.5411 9.07177 14.5266 9.07177C11.5121 9.07177 9.06283 11.5157 9.06283 14.5359ZM5.93195 8.2128C5.42768 8.2128 5.02316 8.62289 5.02316 9.12164C5.02316 9.62593 5.43322 10.0305 5.93195 10.0305H8.66385C9.16811 10.0305 9.57817 9.62039 9.57817 9.12164C9.57817 8.61734 9.17366 8.2128 8.66385 8.2128H5.93195ZM5.93195 4.3447C5.42768 4.3447 5.02316 4.74924 5.02316 5.25353C5.02316 5.75783 5.43322 6.16237 5.93195 6.16237H12.3101C12.8143 6.16237 13.2189 5.75229 13.2189 5.25353C13.2189 4.74924 12.8088 4.3447 12.3101 4.3447H5.93195ZM5.12291 0.221669C2.54063 0.487671 0.484778 2.5381 0.218792 5.12053C-0.0582769 7.79717 -0.0582793 10.4738 0.207707 13.1505C0.468151 15.7495 2.51292 17.8554 5.11183 18.1214C5.52743 18.1657 5.94303 18.1989 6.36417 18.2267C6.8906 18.2654 7.33391 17.8387 7.33391 17.3123C7.33391 16.8301 6.9571 16.4367 6.475 16.3979C6.10927 16.3702 5.738 16.3425 5.37227 16.3037C3.63228 16.1263 2.21369 14.7742 2.03636 13.0341C1.77038 10.4683 1.77038 7.86922 2.03636 5.30341C2.21369 3.55223 3.65444 2.2056 5.40552 2.02826C6.65233 1.90081 7.9213 1.83984 9.16811 1.83984C10.4315 1.83984 11.7116 1.90634 12.9806 2.0338C14.7095 2.21114 16.117 3.54115 16.2943 5.27016C16.3331 5.66916 16.3719 6.0737 16.3996 6.47271C16.4329 6.95483 16.8263 7.33167 17.3139 7.33167C17.8404 7.33167 18.267 6.88834 18.2283 6.36187C18.2006 5.94625 18.1673 5.52508 18.123 5.10945C17.857 2.51593 15.7623 0.465504 13.1634 0.205044C11.8335 0.0720436 10.498 0 9.16811 0C7.82155 0.0166251 6.47501 0.0831264 5.12291 0.221669Z" fill="#31B057"/>
</svg>
