<svg width="20" height="20" viewBox="0 0 20 20" fill="none" xmlns="http://www.w3.org/2000/svg">
<path d="M11.5044 12.5053C11.5044 13.0546 11.9499 13.5063 12.5052 13.5063C13.0606 13.5063 13.5061 13.0546 13.5061 12.5053C13.5061 11.9561 13.0606 11.5044 12.5052 11.5044C11.956 11.5044 11.5044 11.95 11.5044 12.5053ZM6.50617 7.50076C6.50617 8.05005 6.95779 8.50168 7.50704 8.50168C8.06239 8.50168 8.50788 8.05615 8.50788 7.50076C8.50788 6.94538 8.06239 6.49985 7.50704 6.49985C6.95169 6.49985 6.50617 6.95148 6.50617 7.50076ZM12.3099 6.30455L6.30479 12.3039C5.92031 12.6884 5.92031 13.3171 6.30479 13.7016C6.50008 13.8969 6.75029 13.9945 7.00661 13.9945C7.25682 13.9945 7.51313 13.8969 7.70842 13.7016L13.7075 7.70217C14.0919 7.31767 14.0919 6.68905 13.7075 6.30455C13.5122 6.10925 13.2619 6.01159 13.0056 6.01159C12.7554 6.01159 12.4991 6.10925 12.3099 6.30455ZM8.12341 2.97834C8.43465 2.89289 8.7581 2.69759 9.31346 2.3253C9.91153 1.92249 10.058 1.89808 10.7232 2.34971C11.248 2.70369 11.5715 2.89899 11.8827 2.98444C12.194 3.06988 12.554 3.05768 13.2375 3.01495C13.5976 2.99054 13.8295 2.98444 14.0004 3.07598C14.1713 3.17363 14.2811 3.37504 14.452 3.73512C14.7327 4.30272 14.9158 4.63839 15.1416 4.8581C15.3674 5.08392 15.697 5.26701 16.3012 5.55996C16.6246 5.71865 16.8321 5.8285 16.9297 5.99939C17.0274 6.17028 17.0213 6.39609 16.9907 6.7989C16.948 7.42752 16.9419 7.80592 17.0213 8.12329C17.1067 8.43455 17.302 8.75801 17.6743 9.3134C17.8757 9.61245 17.9977 9.80775 17.9977 10.003C17.9977 10.1984 17.8757 10.3937 17.6499 10.7232C17.2959 11.2481 17.1006 11.5716 17.0152 11.8828C16.9297 12.1941 16.9358 12.5542 16.9847 13.2438C17.0091 13.6039 17.0213 13.8358 16.9175 14.0067C16.8199 14.1776 16.6124 14.2875 16.2584 14.4583C15.6909 14.7391 15.3552 14.9222 15.1294 15.148C14.9036 15.3738 14.7205 15.7095 14.4276 16.3076C14.2689 16.6372 14.1591 16.8386 13.9882 16.9362C13.8112 17.04 13.5732 17.0339 13.1643 17.0034C12.6334 16.9667 12.2123 16.9362 11.8644 17.0278C11.5532 17.1132 11.2297 17.3085 10.6744 17.6808C10.0763 18.0836 9.92983 18.108 9.26462 17.6564C8.73979 17.3024 8.41634 17.1071 8.1051 17.0217C7.93422 16.9789 7.75114 16.9606 7.53755 16.9606C7.31784 16.9606 7.06763 16.9789 6.7747 16.9973C6.40243 17.0217 6.15832 17.0339 5.98134 16.9301C5.81047 16.8325 5.7006 16.6311 5.52972 16.271C5.249 15.7034 5.06591 15.3677 4.84011 15.1419C4.6143 14.9161 4.28476 14.733 3.68058 14.44C3.35713 14.2814 3.14964 14.1715 3.052 14.0006C2.94825 13.8236 2.96046 13.5795 2.98487 13.1889C3.02149 12.6518 3.052 12.2307 2.96046 11.8828C2.87502 11.5716 2.67973 11.2481 2.30746 10.6927C2.10606 10.3937 1.98401 10.1984 1.98401 10.003C1.98401 9.80775 2.10607 9.61245 2.33187 9.28288C2.68583 8.75801 2.88113 8.43455 2.96657 8.12329C3.05811 7.77541 3.02758 7.35429 2.99096 6.7928C2.96655 6.42051 2.96047 6.18249 3.06421 6.00549C3.16186 5.83461 3.36324 5.72475 3.72331 5.55386C4.29086 5.27311 4.62652 5.09002 4.84622 4.86421C5.07202 4.63839 5.2551 4.30882 5.54803 3.70461C5.7067 3.38114 5.81656 3.17363 5.98743 3.07598C6.15831 2.97833 6.39022 2.98444 6.7869 3.01495C7.07983 3.03326 7.31175 3.04547 7.50704 3.04547C7.76946 3.04547 7.95253 3.02716 8.12341 2.97834ZM8.16613 0.689658C8.04408 0.768999 7.68401 1.01312 7.64739 1.04364C7.52534 1.06195 7.08594 1.03143 6.90896 1.01922C6.43294 0.982605 5.71282 0.933784 5.00489 1.34269C4.29087 1.7516 3.97962 2.39854 3.75381 2.86238C3.69278 2.99054 3.50361 3.38114 3.4792 3.42386C3.38155 3.5032 2.99098 3.6924 2.83231 3.77174C2.40511 3.97925 1.75822 4.29051 1.34933 5.00458C0.934344 5.72475 0.983161 6.45102 1.01978 6.95758C1.03809 7.1895 1.06249 7.54349 1.06859 7.5679C1.01977 7.68386 0.775668 8.05005 0.678024 8.19652C0.409501 8.59322 0.00671387 9.18523 0.00671387 10.003C0.00671387 10.827 0.4095 11.419 0.696331 11.8401C0.775667 11.9622 1.01978 12.3222 1.04419 12.3528C1.0564 12.4565 1.03198 12.8105 1.01367 13.0729C0.983155 13.5551 0.928236 14.2814 1.34322 15.0015C1.75211 15.7156 2.39899 16.0269 2.8567 16.2527C2.98486 16.3137 3.37545 16.5029 3.41817 16.5273C3.4975 16.625 3.68669 17.0156 3.76603 17.1742C3.97352 17.6015 4.28476 18.2484 4.99879 18.6573C5.71891 19.0723 6.45124 19.0235 6.95777 18.9869C7.18968 18.9686 7.53755 18.9442 7.56196 18.9381C7.67791 18.9869 8.03798 19.231 8.19055 19.3348C8.58723 19.5972 9.17919 20 9.99697 20C10.8208 20 11.4128 19.5972 11.8339 19.3103C11.956 19.231 12.316 18.9869 12.3465 18.9625C12.4503 18.9503 12.7981 18.9747 13.0606 18.993C13.5427 19.0235 14.2689 19.0784 14.9951 18.6634C15.7092 18.2545 16.0204 17.6076 16.2462 17.1437C16.3072 17.0156 16.4964 16.625 16.5208 16.5822C16.6185 16.5029 17.0091 16.3137 17.1677 16.2344C17.5949 16.0269 18.2418 15.7095 18.6507 15.0015C19.0657 14.2936 19.0108 13.5734 18.9742 13.0607C18.9681 12.9204 18.9314 12.4809 18.9314 12.4382C18.9803 12.3222 19.2244 11.9561 19.322 11.8096C19.5905 11.419 19.9933 10.8209 19.9933 10.003C19.9933 9.17913 19.5905 8.58712 19.3037 8.1599C19.2244 8.04394 18.9803 7.67776 18.9498 7.64114C18.9375 7.55569 18.9436 7.31767 18.9742 6.90266C19.0108 6.42661 19.0596 5.70644 18.6507 4.99848C18.2418 4.28441 17.5949 3.97315 17.1372 3.74733C17.0091 3.6863 16.6185 3.4971 16.5758 3.47269C16.4964 3.37504 16.3072 2.98444 16.2279 2.82576C16.0204 2.39854 15.7092 1.7516 14.9951 1.34269C14.2872 0.92768 13.5671 0.982605 13.0545 1.01922C12.908 1.03143 12.4747 1.06195 12.4259 1.06195C12.3099 1.01312 11.9499 0.768995 11.7973 0.671345C11.4006 0.402806 10.8086 0 9.99086 0C9.18529 0 8.59333 0.40281 8.16613 0.689658Z" fill="#31B057"/>
</svg>
