<svg width="20" height="20" viewBox="0 0 20 20" fill="none" xmlns="http://www.w3.org/2000/svg">
<path d="M2.35786 8.23108C2.35786 4.98745 4.99135 2.34662 8.24197 2.34662C11.4854 2.34662 14.1261 4.98027 14.1261 8.23108C14.1261 11.4819 11.4926 14.1155 8.24197 14.1155C4.99135 14.1084 2.35786 11.4747 2.35786 8.23108ZM0.00421143 8.23108C0.00421143 12.7736 3.69972 16.4621 8.2348 16.4621C10.079 16.4621 11.7868 15.8522 13.1645 14.8188C13.2004 14.869 13.2435 14.9121 13.2793 14.948L17.9866 19.6555C18.2234 19.878 18.5176 20 18.819 20C19.1276 20 19.4218 19.8852 19.6514 19.6555C19.8595 19.4474 19.9743 19.1819 19.9958 18.902V18.737C19.9743 18.4643 19.8595 18.1916 19.6514 17.9835L14.9441 13.2759C14.9082 13.24 14.8652 13.1898 14.815 13.1611C15.8483 11.7833 16.4582 10.0825 16.4582 8.23108C16.4582 3.68856 12.7627 1.04331e-05 8.22762 1.04331e-05C3.69973 -0.00716574 0.00421143 3.68856 0.00421143 8.23108Z" fill="#31B057"/>
</svg>
